<?xml version="1.0" encoding="utf-8"?>
<!-- Generator: Adobe Illustrator 16.0.4, SVG Export Plug-In . SVG Version: 6.00 Build 0)  -->
<!DOCTYPE svg PUBLIC "-//W3C//DTD SVG 1.1//EN" "http://www.w3.org/Graphics/SVG/1.1/DTD/svg11.dtd">
<svg version="1.1" xmlns="http://www.w3.org/2000/svg" xmlns:xlink="http://www.w3.org/1999/xlink" x="0px" y="0px" width="247px"
	 height="114.5px" viewBox="0 0 247 114.5" enable-background="new 0 0 247 114.5" xml:space="preserve">
<g id="Logo_Tier">
	<g>
		<path d="M32.409,71.2c0-0.679-0.036-1.143-0.161-1.339c-0.107-0.179-0.321-0.232-0.75-0.268l-0.714-0.054v-0.536
			c1.196,0.019,2.339,0.054,3.517,0.054s2.321-0.035,3.106-0.054h0.232c3.535,0,6.159,2.054,6.159,5.445
			c0,2.928-1.678,5.445-3.838,6.338c-1.018,0.41-2.071,0.625-3.481,0.625H36.14c-0.714-0.018-1.5-0.054-2.303-0.054
			c-0.804,0-1.589,0.036-2.428,0.054v-0.411l0.554-0.285c0.303-0.161,0.446-0.571,0.446-1.054V71.2z M34.105,80.483
			c0.5,0.125,1.428,0.143,2.035,0.143c0.893,0,1.928-0.053,2.91-0.518c1.964-0.91,2.838-2.749,2.838-5.159
			c0-4.428-2.535-5.23-5.749-5.23c-0.607,0-1.535,0.018-2.035,0.143V80.483z"/>
		<path d="M52.206,76.253c0,0.249,0,0.499-0.036,0.749c-1.071,0.179-2.16,0.25-3.231,0.25h-2.606c0,2.089,1.036,3.518,3.231,3.518
			c0.857,0,1.535-0.429,2.213-0.84l0.232,0.179l-0.357,0.607c-0.125,0.214-1.643,1-2.856,1c-2.696,0-4.124-1.714-4.124-4.124
			c0-1.732,0.464-2.768,1.285-3.41c0.339-0.268,0.714-0.535,1.107-0.714c0.625-0.286,1.143-0.482,1.75-0.482
			C50.76,72.985,52.206,74.235,52.206,76.253z M46.368,76.306v0.232c0.768,0.089,1.535,0.107,2.268,0.107
			c0.696,0,1.356-0.019,1.981-0.054c0-1.66-0.607-3.018-1.893-3.018C47.404,73.574,46.368,74.521,46.368,76.306z"/>
		<path d="M54.383,75.521c0-0.571-0.036-0.964-0.125-1.106c-0.107-0.144-0.286-0.197-0.661-0.197h-0.66v-0.499
			c1.053-0.107,2.125-0.446,2.785-0.732l0.161,0.071v1.679h0.036l1.428-1.304c0.303-0.268,0.91-0.446,1.678-0.446
			c1.893,0,3.625,1.446,3.625,3.642c0,1.179-0.964,2.964-1.553,3.339l-2.035,1.321c-0.304,0.196-0.768,0.285-1.232,0.285
			c-0.554,0-1.375-0.071-1.946-0.446V84.5c0,0.482,0.018,0.84,0.089,1.036c0.071,0.16,0.268,0.231,0.571,0.25l0.821,0.054v0.535
			c-0.643-0.018-1.357-0.054-2.231-0.054c-0.875,0-1.589,0.036-2.231,0.054V85.84l0.821-0.054c0.304-0.019,0.5-0.09,0.571-0.25
			c0.072-0.196,0.089-0.554,0.089-1.036V75.521z M55.882,79.608c0.679,0.786,1.518,1.054,2.535,1.054
			c1.446,0,2.678-1.481,2.678-3.499c0-1.679-0.911-3.018-2.785-3.018c-1.321,0-2.035,0.804-2.339,1.357
			c-0.089,0.16-0.089,0.321-0.089,0.481V79.608z"/>
		<path d="M69.271,76.217v-0.054c0-1.356-0.696-2.231-2.25-2.231c-0.768,0-1.018,0.071-1.25,0.375
			c-0.107,0.143-0.196,0.357-0.304,0.589l-0.232,0.554l-0.464-0.125v-1.16l0.946-0.571c0.768-0.465,1.5-0.607,2.071-0.607
			c2.231,0,2.91,0.982,2.91,3.553v3.268c0,0.285,0.018,0.571,0.054,0.768c0.036,0.178,0.196,0.25,0.446,0.268l0.696,0.035v0.536
			c-0.446-0.018-0.893-0.054-1.339-0.054c-0.464,0-0.911,0.036-1.375,0.054l0.089-1.518l-2.214,1.535
			c-0.143,0.107-0.5,0.143-0.821,0.143c-1.214,0-2.178-0.714-2.178-2.16c0-2.053,1.803-2.57,3.446-2.874L69.271,76.217z
			 M69.271,76.788c-0.893,0.125-1.696,0.268-2.606,0.625c-0.625,0.25-1.071,1.018-1.071,1.678c0,0.911,0.679,1.464,1.393,1.464
			c0.554,0,1.125-0.375,1.714-0.821c0.286-0.214,0.5-0.481,0.571-0.589V76.788z"/>
		<path d="M74.269,75.521c0-0.571-0.036-0.964-0.125-1.106c-0.107-0.144-0.286-0.197-0.661-0.197h-0.661v-0.499
			c1.053-0.107,2.125-0.446,2.785-0.732l0.161,0.071v1.804h0.036l0.964-1.143c0.429-0.519,1.036-0.732,1.5-0.732
			c0.303,0,0.678,0.089,0.821,0.196l-0.161,2.143h-0.375c-0.196-0.429-0.571-0.821-1.214-0.821c-0.785,0-1.571,0.821-1.571,1.964
			v3.07c0,0.482,0.018,0.84,0.089,1.036c0.071,0.16,0.339,0.231,0.75,0.25l0.928,0.053v0.536c-0.928-0.018-1.642-0.054-2.517-0.054
			c-0.875,0-1.589,0.036-2.231,0.054v-0.536l0.821-0.053c0.303-0.019,0.5-0.09,0.571-0.25c0.071-0.196,0.089-0.554,0.089-1.036
			V75.521z"/>
		<path d="M79.855,74.61v-0.375l1.393-0.625v-1.25c0-0.464-0.018-0.928-0.071-1.41c0.643-0.196,1.214-0.482,1.518-0.679l0.214,0.196
			c-0.107,0.786-0.197,1.786-0.197,2.535v0.679l2.446-0.107l-0.161,0.965h-2.285v4.677c0,0.821,0.232,1.232,0.982,1.232
			c0.464,0,0.804-0.196,1.054-0.34l0.232,0.304l-0.857,0.946c-0.161,0.179-0.786,0.214-1.161,0.214c-0.946,0-1.75-0.446-1.75-1.892
			v-5.142L79.855,74.61z"/>
		<path d="M87.049,75.521c0-0.571-0.036-0.964-0.125-1.106c-0.107-0.144-0.286-0.197-0.661-0.197h-0.661v-0.499
			c1.053-0.107,2.125-0.446,2.785-0.732l0.161,0.071v1.518l1.232-1.143c0.375-0.339,0.857-0.446,1.571-0.446
			c1.036,0,1.946,0.482,2.446,1.66l1.357-1.214c0.393-0.339,0.857-0.446,1.571-0.446c1.41,0,2.571,1.018,2.571,2.874v3.678
			c0,0.482,0.018,0.84,0.089,1.036c0.072,0.16,0.268,0.231,0.571,0.25l0.839,0.053v0.536c-0.554-0.018-1.071-0.054-1.571-0.054
			c-0.5,0-1.018,0.036-1.428,0.054v-5.07c0-1.196-0.518-2.268-1.678-2.268c-1.089,0-2.196,0.946-2.196,1.679v3.784
			c0,0.482,0.018,0.84,0.089,1.036c0.071,0.16,0.268,0.231,0.571,0.25l0.821,0.053v0.536c-0.643-0.018-1.357-0.054-2.231-0.054
			c-0.875,0-1.589,0.036-2.232,0.054v-0.536l0.821-0.053c0.304-0.019,0.5-0.09,0.571-0.25c0.071-0.196,0.089-0.554,0.089-1.036
			v-3.195c0-1.196-0.518-2.268-1.678-2.268c-1.089,0-2.196,0.946-2.196,1.679v3.784c0,0.482,0.018,0.84,0.089,1.036
			c0.071,0.16,0.268,0.231,0.571,0.25l0.75,0.053v0.536c-0.571-0.018-1.285-0.054-2.16-0.054c-0.875,0-1.589,0.036-2.231,0.054
			v-0.536l0.821-0.053c0.303-0.019,0.5-0.09,0.571-0.25c0.071-0.196,0.089-0.554,0.089-1.036V75.521z"/>
		<path d="M109.042,76.253c0,0.249,0,0.499-0.036,0.749c-1.071,0.179-2.16,0.25-3.231,0.25h-2.606c0,2.089,1.036,3.518,3.231,3.518
			c0.857,0,1.535-0.429,2.213-0.84l0.232,0.179l-0.357,0.607c-0.125,0.214-1.643,1-2.856,1c-2.696,0-4.124-1.714-4.124-4.124
			c0-1.732,0.464-2.768,1.285-3.41c0.339-0.268,0.714-0.535,1.107-0.714c0.625-0.286,1.143-0.482,1.75-0.482
			C107.596,72.985,109.042,74.235,109.042,76.253z M103.204,76.306v0.232c0.768,0.089,1.535,0.107,2.268,0.107
			c0.696,0,1.356-0.019,1.981-0.054c0-1.66-0.607-3.018-1.893-3.018C104.24,73.574,103.204,74.521,103.204,76.306z"/>
		<path d="M112.665,79.537c0,0.482,0.018,0.84,0.089,1.036c0.071,0.16,0.268,0.231,0.571,0.25l0.803,0.053v0.536
			c-0.625-0.018-1.339-0.054-2.214-0.054c-0.875,0-1.589,0.036-2.214,0.054v-0.536l0.804-0.053c0.303-0.019,0.5-0.09,0.571-0.25
			c0.071-0.196,0.089-0.554,0.089-1.036v-4.017c0-0.571-0.036-0.964-0.125-1.106c-0.107-0.144-0.286-0.197-0.661-0.197h-0.661
			v-0.499c1.053-0.107,2.125-0.446,2.785-0.732l0.161,0.071v1.518h0.036l1.321-1.143c0.393-0.339,0.732-0.446,1.446-0.446
			c2.089,0,2.946,1.16,2.946,3.106v3.445c0,0.482,0.018,0.84,0.089,1.036c0.071,0.16,0.268,0.231,0.571,0.25l0.732,0.053v0.536
			c-0.446-0.018-0.964-0.054-1.464-0.054c-0.5,0-1.018,0.036-1.428,0.054v-5.07c0-1.481-0.839-2.268-2.053-2.268
			c-1.089,0-2.196,0.946-2.196,1.679V79.537z"/>
		<path d="M120.375,74.61v-0.375l1.393-0.625v-1.25c0-0.464-0.018-0.928-0.071-1.41c0.643-0.196,1.214-0.482,1.518-0.679
			l0.214,0.196c-0.107,0.786-0.197,1.786-0.197,2.535v0.679l2.446-0.107l-0.161,0.965h-2.285v4.677c0,0.821,0.232,1.232,0.982,1.232
			c0.464,0,0.804-0.196,1.054-0.34l0.232,0.304l-0.857,0.946c-0.161,0.179-0.786,0.214-1.161,0.214c-0.946,0-1.75-0.446-1.75-1.892
			v-5.142L120.375,74.61z"/>
		<path d="M134.639,81.716c-2.196,0-3.803-1.768-3.803-4.178c0-2.678,1.678-4.553,4.552-4.553c2.285,0,4.053,1.785,4.053,4.07
			c0,2.731-1.946,4.66-4.677,4.66H134.639z M132.497,76.771c0,1.874,0.679,4.355,2.964,4.355c1.625,0,2.321-1.624,2.321-3.284
			c0-2.304-1.089-4.268-2.803-4.268C133.086,73.574,132.497,75.11,132.497,76.771z"/>
		<path d="M146.1,69.933l-0.214,0.107c-0.321-0.304-0.732-0.5-1.178-0.5c-1.107,0-1.303,0.518-1.303,2.553v1.518l2.339-0.071
			l-0.125,0.946h-2.214v5.052c0,0.482,0.018,0.84,0.089,1.036c0.071,0.16,0.268,0.231,0.571,0.25l0.821,0.053v0.536
			c-0.643-0.018-1.357-0.054-2.232-0.054c-0.875,0-1.589,0.036-2.231,0.054v-0.536l0.821-0.053c0.303-0.019,0.5-0.09,0.571-0.25
			c0.071-0.196,0.089-0.554,0.089-1.036v-5.052l-1.232,0.071v-0.393l1.232-0.554v-0.75c0-1.178,0.232-1.981,0.75-2.57l1.036-1.179
			c0.464-0.535,1.107-0.75,1.606-0.75c0.268,0,0.554,0.09,0.804,0.196V69.933z"/>
		<path d="M154.275,79.216c0,0.679,0.036,1.143,0.161,1.339c0.107,0.179,0.321,0.25,0.75,0.269l0.857,0.053v0.536
			c-0.928-0.036-1.767-0.054-2.588-0.054c-0.875,0-1.714,0.018-2.643,0.054v-0.536l0.857-0.053c0.429-0.019,0.643-0.09,0.75-0.269
			c0.125-0.196,0.161-0.66,0.161-1.339V71.2c0-0.625-0.054-1.125-0.179-1.304c-0.125-0.178-0.321-0.268-0.768-0.303l-0.803-0.054
			v-0.536c1.178,0.019,2.196,0.054,3.213,0.054c1.036,0,2.071-0.035,3.035-0.054h0.125c1.696,0,3.57,0.768,3.57,2.731
			c0,2.232-1.928,3.839-4.285,3.839c-0.357,0-0.714-0.036-1.071-0.107l-0.179-0.643c0.393,0.125,0.786,0.179,1.178,0.179
			c1.446,0,2.571-1.143,2.571-2.66c0-1.856-1.125-2.66-2.892-2.66c-0.803,0-1.321,0.089-1.821,0.214V79.216z"/>
		<path d="M166.985,76.217v-0.054c0-1.356-0.696-2.231-2.25-2.231c-0.768,0-1.018,0.071-1.25,0.375
			c-0.107,0.143-0.196,0.357-0.304,0.589l-0.232,0.554l-0.464-0.125v-1.16l0.946-0.571c0.768-0.465,1.5-0.607,2.071-0.607
			c2.231,0,2.91,0.982,2.91,3.553v3.268c0,0.285,0.018,0.571,0.054,0.768c0.036,0.178,0.196,0.25,0.446,0.268l0.696,0.035v0.536
			c-0.446-0.018-0.893-0.054-1.339-0.054c-0.464,0-0.911,0.036-1.375,0.054l0.089-1.518l-2.213,1.535
			c-0.143,0.107-0.5,0.143-0.821,0.143c-1.214,0-2.178-0.714-2.178-2.16c0-2.053,1.803-2.57,3.446-2.874L166.985,76.217z
			 M166.985,76.788c-0.893,0.125-1.696,0.268-2.606,0.625c-0.625,0.25-1.071,1.018-1.071,1.678c0,0.911,0.679,1.464,1.393,1.464
			c0.554,0,1.125-0.375,1.714-0.821c0.286-0.214,0.5-0.481,0.571-0.589V76.788z"/>
		<path d="M171.982,75.521c0-0.571-0.036-0.964-0.125-1.106c-0.107-0.144-0.286-0.197-0.661-0.197h-0.661v-0.499
			c1.053-0.107,2.125-0.446,2.785-0.732l0.161,0.071v1.804h0.036l0.964-1.143c0.429-0.519,1.036-0.732,1.5-0.732
			c0.304,0,0.679,0.089,0.821,0.196l-0.16,2.143h-0.375c-0.197-0.429-0.571-0.821-1.214-0.821c-0.786,0-1.571,0.821-1.571,1.964
			v3.07c0,0.482,0.018,0.84,0.089,1.036c0.071,0.16,0.339,0.231,0.75,0.25l0.928,0.053v0.536c-0.928-0.018-1.642-0.054-2.517-0.054
			c-0.875,0-1.589,0.036-2.231,0.054v-0.536l0.821-0.053c0.303-0.019,0.5-0.09,0.571-0.25c0.071-0.196,0.089-0.554,0.089-1.036
			V75.521z"/>
		<path d="M179.033,70.29c0-0.411-0.054-0.732-0.446-0.732h-0.999v-0.5c0.945-0.143,1.892-0.304,2.784-0.66l0.161,0.143v8.159
			l1.303-1.054c0.946-0.768,1.946-1.75,2.679-2.481h1.785v0.535h-0.09c-0.696,0-1.303,0.429-1.839,0.84l-2.303,1.803
			c0.357,0.429,0.75,0.821,1.143,1.214l2.25,2.231c0.374,0.375,0.981,0.857,1.517,0.857v0.41l-1.714,0.518l-4.73-4.498v2.463
			c0,0.482,0.018,0.84,0.089,1.036c0.071,0.16,0.269,0.231,0.571,0.25l0.786,0.053v0.536c-0.607-0.018-1.321-0.054-2.196-0.054
			s-1.589,0.036-2.231,0.054v-0.536l0.821-0.053c0.304-0.019,0.5-0.09,0.571-0.25c0.071-0.196,0.089-0.554,0.089-1.036V70.29z"/>
		<path d="M190.458,79.537c0,0.482,0.018,0.84,0.089,1.036c0.071,0.16,0.268,0.231,0.571,0.25l0.821,0.053v0.536
			c-0.643-0.018-1.356-0.054-2.231-0.054s-1.589,0.036-2.231,0.054v-0.536l0.821-0.053c0.304-0.019,0.5-0.09,0.571-0.25
			c0.071-0.196,0.089-0.554,0.089-1.036v-4.017c0-0.571-0.035-0.964-0.125-1.106c-0.106-0.144-0.285-0.197-0.66-0.197h-0.661v-0.499
			c1.054-0.107,2.125-0.446,2.785-0.732l0.161,0.071V79.537z M190.618,70.094c0,0.518-0.481,0.981-0.999,0.981
			s-0.982-0.464-0.982-0.981c0-0.519,0.465-1,0.982-1S190.618,69.575,190.618,70.094z"/>
		<path d="M195.366,79.537c0,0.482,0.019,0.84,0.09,1.036c0.071,0.16,0.268,0.231,0.571,0.25l0.803,0.053v0.536
			c-0.624-0.018-1.339-0.054-2.213-0.054c-0.875,0-1.589,0.036-2.214,0.054v-0.536l0.803-0.053c0.304-0.019,0.5-0.09,0.571-0.25
			c0.071-0.196,0.09-0.554,0.09-1.036v-4.017c0-0.571-0.036-0.964-0.125-1.106c-0.107-0.144-0.286-0.197-0.661-0.197h-0.66v-0.499
			c1.054-0.107,2.124-0.446,2.785-0.732l0.16,0.071v1.518h0.036l1.321-1.143c0.393-0.339,0.731-0.446,1.446-0.446
			c2.088,0,2.945,1.16,2.945,3.106v3.445c0,0.482,0.018,0.84,0.089,1.036c0.071,0.16,0.269,0.231,0.571,0.25l0.732,0.053v0.536
			c-0.446-0.018-0.964-0.054-1.464-0.054s-1.018,0.036-1.429,0.054v-5.07c0-1.481-0.839-2.268-2.053-2.268
			c-1.089,0-2.196,0.946-2.196,1.679V79.537z"/>
		<path d="M210.308,74.61c0.143,0.321,0.196,0.66,0.196,0.999c0,0.965-0.481,1.732-1.196,2.214
			c-0.785,0.554-1.678,0.857-2.499,0.857c-0.125,0-0.25-0.018-0.375-0.036c-0.25,0.25-0.821,0.607-0.821,1
			c0,0.679,0.821,0.714,1.356,0.714h2.857c1.606,0,2.106,1.321,2.106,2.214c0,1.893-1.821,3.839-4.839,3.839
			c-2.16,0-3.838-1.09-3.838-2.679c0-0.518,0.125-1.089,0.5-1.428l1.553-0.839c-0.785-0.215-1.178-0.536-1.178-1.054
			c0-0.268,0.106-0.535,0.268-0.75l1.375-1.053v-0.036c-0.571-0.018-2.107-0.535-2.107-2.393c0-1.143,0.554-1.91,1.357-2.428
			c0.821-0.535,1.91-0.768,2.589-0.768c0.785,0,1.606,0.232,2.178,0.75l2.535-0.071l0.071,0.214l-0.446,0.732H210.308z
			 M210.521,83.215c0-1.053-0.499-1.606-2.517-1.606c-0.464,0-1.089,0-1.893,0.071c-0.5,0.054-1.5,0.75-1.5,1.875
			c0,1.535,1.179,2.303,2.606,2.303C209.183,85.857,210.521,84.644,210.521,83.215z M206.951,73.593
			c-1.196,0-1.785,0.928-1.785,2.106c0,1.571,0.875,2.374,2.018,2.374c1.053,0,1.821-0.803,1.821-1.893
			C209.005,74.878,208.434,73.593,206.951,73.593z"/>
		<path d="M53.83,97.638v-0.054c0-1.356-0.696-2.231-2.25-2.231c-0.768,0-1.018,0.071-1.25,0.375
			c-0.107,0.143-0.196,0.357-0.304,0.589l-0.232,0.554l-0.464-0.125v-1.16l0.946-0.571c0.768-0.465,1.5-0.607,2.071-0.607
			c2.231,0,2.91,0.982,2.91,3.553v3.268c0,0.285,0.018,0.571,0.054,0.768c0.036,0.178,0.196,0.25,0.446,0.268l0.696,0.035v0.536
			c-0.446-0.018-0.893-0.054-1.339-0.054c-0.464,0-0.911,0.036-1.375,0.054l0.089-1.518l-2.214,1.535
			c-0.143,0.107-0.5,0.143-0.821,0.143c-1.214,0-2.178-0.714-2.178-2.16c0-2.053,1.803-2.57,3.446-2.874L53.83,97.638z
			 M53.83,98.209c-0.893,0.125-1.696,0.268-2.606,0.625c-0.625,0.25-1.071,1.018-1.071,1.678c0,0.911,0.679,1.464,1.393,1.464
			c0.554,0,1.125-0.375,1.714-0.821c0.286-0.214,0.5-0.481,0.571-0.589V98.209z"/>
		<path d="M60.042,100.958c0,0.482,0.018,0.84,0.089,1.036c0.071,0.16,0.268,0.231,0.571,0.25l0.803,0.053v0.536
			c-0.625-0.018-1.339-0.054-2.214-0.054c-0.875,0-1.589,0.036-2.214,0.054v-0.536l0.804-0.053c0.303-0.019,0.5-0.09,0.571-0.25
			c0.071-0.196,0.089-0.554,0.089-1.036v-4.017c0-0.571-0.036-0.964-0.125-1.106c-0.107-0.144-0.286-0.196-0.661-0.196h-0.661v-0.5
			c1.053-0.107,2.125-0.446,2.785-0.732l0.161,0.071v1.518h0.036l1.321-1.143c0.393-0.339,0.732-0.446,1.446-0.446
			c2.089,0,2.946,1.16,2.946,3.106v3.445c0,0.482,0.018,0.84,0.089,1.036c0.071,0.16,0.268,0.231,0.571,0.25l0.732,0.053v0.536
			c-0.446-0.018-0.964-0.054-1.464-0.054c-0.5,0-1.018,0.036-1.428,0.054v-5.07c0-1.481-0.839-2.268-2.053-2.268
			c-1.089,0-2.196,0.946-2.196,1.679V100.958z"/>
		<path d="M74.715,91.711c0-0.411-0.054-0.732-0.446-0.732h-1v-0.5c0.946-0.143,1.893-0.304,2.785-0.66l0.161,0.143v10.997
			c0,0.482,0.018,0.84,0.089,1.036c0.071,0.16,0.268,0.231,0.571,0.25l0.821,0.053v0.536c-0.732-0.018-1.178-0.054-1.625-0.054
			c-0.464,0-0.911,0.036-1.375,0.054l0.089-1.643l-1.981,1.66c-0.161,0.125-0.679,0.143-1.143,0.143c-2.5,0-3.678-1.785-3.678-4.124
			c0-1.624,0.785-2.838,1.678-3.303l1.571-0.821c0.536-0.285,1.018-0.339,1.321-0.339c0.803,0,1.393,0.232,2.16,0.571V91.711z
			 M74.715,96.531c0-0.357-1.393-1.286-2.464-1.286h-0.054c-1.821,0.054-2.66,1.089-2.66,3.268c0,1.66,0.928,3.463,2.785,3.463
			c0.75,0,1.464-0.518,1.946-1.124c0.411-0.519,0.446-1.018,0.446-1.625v-0.393V96.531z"/>
		<path d="M87.354,93.085c0-0.678-0.018-1.249-0.072-1.785h-2.767c-0.536,0-0.678,0.161-0.714,0.589L83.729,93.3h-0.554
			c0-0.965-0.036-1.946-0.125-2.875c1.286,0,2.571,0.054,3.856,0.054h2.588c0.643,0,1.286-0.018,1.928-0.035
			c0.643,0,1.285-0.019,1.928-0.019c-0.089,0.929-0.125,1.91-0.125,2.875h-0.554l-0.071-1.411c-0.036-0.428-0.179-0.589-0.714-0.589
			h-2.768c-0.053,0.536-0.071,1.107-0.071,1.785v7.552c0,0.679,0.036,1.143,0.161,1.339c0.107,0.179,0.321,0.25,0.75,0.269
			l0.857,0.053v0.536c-0.928-0.036-1.768-0.054-2.589-0.054c-0.875,0-1.714,0.018-2.642,0.054v-0.536l0.857-0.053
			c0.428-0.019,0.643-0.09,0.75-0.269c0.125-0.196,0.161-0.66,0.161-1.339V93.085z"/>
		<path d="M93.922,96.941c0-0.571-0.036-0.964-0.125-1.106c-0.107-0.144-0.286-0.196-0.661-0.196h-0.661v-0.5
			c1.053-0.107,2.125-0.446,2.785-0.732l0.161,0.071v1.804h0.036l0.964-1.143c0.429-0.519,1.036-0.732,1.5-0.732
			c0.304,0,0.679,0.09,0.821,0.196l-0.161,2.143h-0.375c-0.197-0.429-0.571-0.821-1.214-0.821c-0.786,0-1.571,0.821-1.571,1.964
			v3.07c0,0.482,0.018,0.84,0.089,1.036c0.071,0.16,0.339,0.231,0.75,0.25l0.928,0.053v0.536c-0.928-0.018-1.642-0.054-2.517-0.054
			c-0.875,0-1.589,0.036-2.231,0.054v-0.536l0.821-0.053c0.303-0.019,0.5-0.09,0.571-0.25c0.071-0.196,0.089-0.554,0.089-1.036
			V96.941z"/>
		<path d="M104.9,97.638v-0.054c0-1.356-0.696-2.231-2.25-2.231c-0.768,0-1.018,0.071-1.25,0.375
			c-0.107,0.143-0.196,0.357-0.304,0.589l-0.232,0.554l-0.464-0.125v-1.16l0.946-0.571c0.768-0.465,1.5-0.607,2.071-0.607
			c2.231,0,2.91,0.982,2.91,3.553v3.268c0,0.285,0.018,0.571,0.054,0.768c0.036,0.178,0.196,0.25,0.446,0.268l0.696,0.035v0.536
			c-0.446-0.018-0.893-0.054-1.339-0.054c-0.464,0-0.911,0.036-1.375,0.054l0.089-1.518l-2.214,1.535
			c-0.143,0.107-0.5,0.143-0.821,0.143c-1.214,0-2.178-0.714-2.178-2.16c0-2.053,1.803-2.57,3.446-2.874L104.9,97.638z
			 M104.9,98.209c-0.893,0.125-1.696,0.268-2.606,0.625c-0.625,0.25-1.071,1.018-1.071,1.678c0,0.911,0.679,1.464,1.393,1.464
			c0.554,0,1.125-0.375,1.714-0.821c0.286-0.214,0.5-0.481,0.571-0.589V98.209z"/>
		<path d="M111.112,100.958c0,0.482,0.018,0.84,0.089,1.036c0.071,0.16,0.268,0.231,0.571,0.25l0.803,0.053v0.536
			c-0.625-0.018-1.339-0.054-2.214-0.054c-0.875,0-1.589,0.036-2.214,0.054v-0.536l0.804-0.053c0.303-0.019,0.5-0.09,0.571-0.25
			c0.071-0.196,0.089-0.554,0.089-1.036v-4.017c0-0.571-0.036-0.964-0.125-1.106c-0.107-0.144-0.286-0.196-0.661-0.196h-0.661v-0.5
			c1.053-0.107,2.125-0.446,2.785-0.732l0.161,0.071v1.518h0.036l1.321-1.143c0.393-0.339,0.732-0.446,1.446-0.446
			c2.089,0,2.946,1.16,2.946,3.106v3.445c0,0.482,0.018,0.84,0.089,1.036c0.071,0.16,0.268,0.231,0.571,0.25l0.732,0.053v0.536
			c-0.446-0.018-0.964-0.054-1.464-0.054c-0.5,0-1.018,0.036-1.428,0.054v-5.07c0-1.481-0.839-2.268-2.053-2.268
			c-1.089,0-2.196,0.946-2.196,1.679V100.958z"/>
		<path d="M119.698,100.227v0.731c0,1.107,1.268,1.518,2.303,1.518c1.125,0,2.088-0.66,2.088-1.624c0-0.571-0.303-1.036-0.857-1.179
			c-0.785-0.196-1.767-0.393-2.624-0.714s-1.518-0.857-1.518-1.946c0-1.928,1.678-2.606,3.356-2.606
			c0.839,0,1.606,0.196,2.303,0.446c-0.054,0.643-0.071,1.304-0.089,2.018h-0.5v-0.411c0-0.928-1.054-1.464-2.071-1.464
			c-1.518,0-1.75,0.84-1.75,1.446c0,0.768,0.589,1.179,1.946,1.41c2.125,0.357,3.125,0.893,3.125,2.285c0,1.964-1.964,3-3.945,3
			c-0.857,0-1.625-0.125-2.5-0.429c0.179-0.786,0.196-1.643,0.196-2.481H119.698z"/>
		<path d="M127.624,96.941c0-0.571-0.036-0.964-0.125-1.106c-0.107-0.144-0.286-0.196-0.661-0.196h-0.66v-0.5
			c1.053-0.107,2.125-0.446,2.785-0.732l0.161,0.071v1.679h0.036l1.428-1.304c0.303-0.268,0.91-0.446,1.678-0.446
			c1.893,0,3.625,1.446,3.625,3.642c0,1.179-0.964,2.964-1.553,3.339l-2.035,1.321c-0.304,0.196-0.768,0.285-1.232,0.285
			c-0.554,0-1.375-0.071-1.946-0.446v3.375c0,0.481,0.018,0.839,0.089,1.035c0.072,0.16,0.268,0.231,0.571,0.25l0.821,0.054v0.535
			c-0.643-0.018-1.357-0.054-2.231-0.054c-0.875,0-1.589,0.036-2.232,0.054v-0.535l0.821-0.054c0.304-0.019,0.5-0.09,0.571-0.25
			c0.072-0.196,0.089-0.554,0.089-1.035V96.941z M129.123,101.029c0.679,0.786,1.518,1.054,2.535,1.054
			c1.446,0,2.678-1.481,2.678-3.499c0-1.679-0.911-3.018-2.785-3.018c-1.321,0-2.035,0.804-2.339,1.357
			c-0.089,0.16-0.089,0.321-0.089,0.481V101.029z"/>
		<path d="M141.102,103.137c-2.196,0-3.803-1.768-3.803-4.178c0-2.678,1.678-4.553,4.552-4.553c2.285,0,4.053,1.785,4.053,4.07
			c0,2.731-1.946,4.66-4.677,4.66H141.102z M138.959,98.191c0,1.874,0.679,4.355,2.964,4.355c1.625,0,2.321-1.624,2.321-3.284
			c0-2.304-1.089-4.268-2.803-4.268C139.548,94.995,138.959,96.531,138.959,98.191z"/>
		<path d="M148.33,96.941c0-0.571-0.036-0.964-0.125-1.106c-0.107-0.144-0.286-0.196-0.661-0.196h-0.661v-0.5
			c1.053-0.107,2.125-0.446,2.785-0.732l0.161,0.071v1.804h0.036l0.964-1.143c0.429-0.519,1.036-0.732,1.5-0.732
			c0.304,0,0.679,0.09,0.821,0.196l-0.161,2.143h-0.375c-0.197-0.429-0.571-0.821-1.214-0.821c-0.786,0-1.571,0.821-1.571,1.964
			v3.07c0,0.482,0.018,0.84,0.089,1.036c0.071,0.16,0.339,0.231,0.75,0.25l0.928,0.053v0.536c-0.928-0.018-1.642-0.054-2.517-0.054
			c-0.875,0-1.589,0.036-2.231,0.054v-0.536l0.821-0.053c0.303-0.019,0.5-0.09,0.571-0.25c0.071-0.196,0.089-0.554,0.089-1.036
			V96.941z"/>
		<path d="M153.917,96.031v-0.375l1.393-0.625v-1.25c0-0.464-0.018-0.928-0.071-1.41c0.643-0.196,1.214-0.482,1.518-0.679
			l0.214,0.196c-0.107,0.786-0.197,1.786-0.197,2.535v0.679l2.446-0.107l-0.161,0.965h-2.285v4.677c0,0.821,0.232,1.232,0.982,1.232
			c0.464,0,0.804-0.196,1.053-0.34l0.232,0.304l-0.857,0.946c-0.161,0.179-0.786,0.214-1.161,0.214c-0.946,0-1.75-0.446-1.75-1.892
			V95.96L153.917,96.031z"/>
		<path d="M165.128,97.638v-0.054c0-1.356-0.696-2.231-2.25-2.231c-0.768,0-1.018,0.071-1.25,0.375
			c-0.107,0.143-0.196,0.357-0.304,0.589l-0.232,0.554l-0.464-0.125v-1.16l0.946-0.571c0.768-0.465,1.5-0.607,2.071-0.607
			c2.231,0,2.91,0.982,2.91,3.553v3.268c0,0.285,0.018,0.571,0.054,0.768c0.036,0.178,0.196,0.25,0.446,0.268l0.696,0.035v0.536
			c-0.446-0.018-0.893-0.054-1.339-0.054c-0.464,0-0.911,0.036-1.375,0.054l0.089-1.518l-2.214,1.535
			c-0.143,0.107-0.5,0.143-0.821,0.143c-1.214,0-2.178-0.714-2.178-2.16c0-2.053,1.803-2.57,3.446-2.874L165.128,97.638z
			 M165.128,98.209c-0.893,0.125-1.696,0.268-2.606,0.625c-0.625,0.25-1.071,1.018-1.071,1.678c0,0.911,0.679,1.464,1.393,1.464
			c0.554,0,1.125-0.375,1.714-0.821c0.286-0.214,0.5-0.481,0.571-0.589V98.209z"/>
		<path d="M168.662,96.031v-0.375l1.393-0.625v-1.25c0-0.464-0.018-0.928-0.071-1.41c0.643-0.196,1.214-0.482,1.518-0.679
			l0.214,0.196c-0.107,0.786-0.197,1.786-0.197,2.535v0.679l2.446-0.107l-0.161,0.965h-2.285v4.677c0,0.821,0.232,1.232,0.982,1.232
			c0.464,0,0.804-0.196,1.054-0.34l0.232,0.304l-0.857,0.946c-0.161,0.179-0.786,0.214-1.161,0.214c-0.946,0-1.75-0.446-1.75-1.892
			V95.96L168.662,96.031z"/>
		<path d="M177.445,100.958c0,0.482,0.018,0.84,0.089,1.036c0.071,0.16,0.268,0.231,0.571,0.25l0.821,0.053v0.536
			c-0.643-0.018-1.356-0.054-2.231-0.054s-1.589,0.036-2.232,0.054v-0.536l0.821-0.053c0.303-0.019,0.5-0.09,0.571-0.25
			c0.071-0.196,0.089-0.554,0.089-1.036v-4.017c0-0.571-0.036-0.964-0.125-1.106c-0.107-0.144-0.286-0.196-0.661-0.196h-0.661v-0.5
			c1.053-0.107,2.124-0.446,2.785-0.732l0.161,0.071V100.958z M177.605,91.515c0,0.518-0.482,0.981-1,0.981
			s-0.982-0.464-0.982-0.981c0-0.519,0.464-1,0.982-1S177.605,90.996,177.605,91.515z"/>
		<path d="M183.656,103.137c-2.196,0-3.803-1.768-3.803-4.178c0-2.678,1.678-4.553,4.553-4.553c2.285,0,4.053,1.785,4.053,4.07
			c0,2.731-1.946,4.66-4.678,4.66H183.656z M181.514,98.191c0,1.874,0.679,4.355,2.964,4.355c1.624,0,2.32-1.624,2.32-3.284
			c0-2.304-1.089-4.268-2.803-4.268C182.103,94.995,181.514,96.531,181.514,98.191z"/>
		<path d="M192.099,100.958c0,0.482,0.019,0.84,0.09,1.036c0.071,0.16,0.268,0.231,0.571,0.25l0.803,0.053v0.536
			c-0.624-0.018-1.339-0.054-2.213-0.054c-0.875,0-1.589,0.036-2.214,0.054v-0.536l0.803-0.053c0.304-0.019,0.5-0.09,0.571-0.25
			c0.071-0.196,0.09-0.554,0.09-1.036v-4.017c0-0.571-0.036-0.964-0.125-1.106c-0.107-0.144-0.286-0.196-0.661-0.196h-0.66v-0.5
			c1.054-0.107,2.124-0.446,2.785-0.732l0.16,0.071v1.518h0.036l1.321-1.143c0.393-0.339,0.731-0.446,1.446-0.446
			c2.088,0,2.945,1.16,2.945,3.106v3.445c0,0.482,0.018,0.84,0.089,1.036c0.071,0.16,0.269,0.231,0.571,0.25l0.732,0.053v0.536
			c-0.446-0.018-0.964-0.054-1.464-0.054s-1.018,0.036-1.429,0.054v-5.07c0-1.481-0.839-2.268-2.053-2.268
			c-1.089,0-2.196,0.946-2.196,1.679V100.958z"/>
	</g>
</g>
<g id="KSU_Logo">
	<g>
		<path d="M51.145,50.191l-35.759,0.08c2.859-3.847,6.286-5.519,9.23-6.396c2.925-0.878,7.369-1.323,11.015-1.557
			c6.05-0.397,10.639-1.725,12.997-2.484c7.003-2.274,11.057-4.769,15.998-7.1c3.47-1.64,18.943-7.733,22.396-9.274
			c3.322-1.484,6.13-2.923,9.23-4.65c3.787-2.114,6.069-3.091,7.998-3.907c3.072-1.301,6.036-1.603,8.387-0.547
			c6.963,3.118,4.107,1.729,6.524,2.743c5.875,2.456,13.005,7.435,17.594,10.554c4.794,3.256,9.389,4.084,12.635,4.204
			c2.184,0.085,5.26-0.743,5.471-0.969c0.197-0.207-2.57,0.438-3.973,0.151c-7.238-1.484-10.064-4.113-10.978-4.796
			c-0.024-0.02-0.05-0.039-0.073-0.057c-0.675-0.885-0.437-1.044-0.165-1.386c2.405-1.505,7.551-5.095,13.556-6.079
			c7.333-1.206,12.807,2.304,18.838,6.171c5.456,3.5,11.767,7.964,21.675,12.269c2.474,1.079,4.961,2.644,7.749,3.663
			c2.947,1.077,11.594,3.62,14.284,6.168c4.22,4.003,5.239,2.372,9.135,3.623c2.829,0.908,3.231,3.011,4.383,7.746
			c1.077-3.101-0.565-11.005-4.383-11.795c-3.246-0.675-3.76-0.325-5.977-1.653c-1.471-0.878-2.764-2.038-4.183-3.041
			c-3.434-2.407-6.333-2.774-10.065-4.066c-3.178-1.095-6.911-3.156-9.937-4.479c-6.938-3.04-13.167-6.856-20.563-11.435
			c-6.345-3.925-13.03-8.318-20.993-7.12c-3.504,0.527-6.394,1.625-8.9,2.943c-3.455,1.815-3.981,2.343-6.767,3.624
			c-1.793,0.82-3.62,0.497-3.573,0.453c-0.059-0.019-0.103-0.031-0.153-0.045c-5.054-3.619-10.71-7.38-13.831-8.338
			c-1.817-0.56-4.138-2.073-6.219-2.802c-3.749-1.314-8.859-0.728-12.306,0.976c-3.672,1.822-7.174,3.585-10.807,5.726
			c-4.151,2.444-20.847,9.133-24.859,10.859c-3.969,1.709-9.64,4.727-13.998,6.485c-10.242,4.134-11.162,3.766-20.869,4.773
			c-1.533,0.159-6.909,0.558-12.207,3.632c-3.018,1.755-7.585,5.774-7.521,9.378c0.005,0,0.002,0,0.005,0l-0.005,0.004l39.977-0.052
			L51.145,50.191"/>
		<path fill="#FFC425" d="M51.135,49.433l-35.829-0.016c2.862-3.858,6.29-5.53,9.239-6.405c2.929-0.878,7.378-1.329,11.025-1.56
			c6.06-0.397,10.653-1.73,13.012-2.495c7.009-2.275,11.068-4.772,16.014-7.107c3.472-1.639,18.96-7.743,22.421-9.288
			c3.322-1.485,6.136-2.929,9.237-4.659c3.794-2.116,6.076-3.093,8.009-3.911c3.077-1.302,6.037-1.604,8.396-0.552
			c6.967,3.125,4.112,1.736,6.532,2.75c5.883,2.46,13.016,7.446,17.608,10.573c4.799,3.261,9.312,4.334,12.568,4.471
			c1.72,0.068,4.916-0.265,5.443-0.351c0.5-0.086-2.453-0.328-3.857-0.617c-7.252-1.484-10.983-4.916-11.068-4.975
			c-0.717-0.853-0.438-1.046-0.164-1.386c2.412-1.507,7.562-5.102,13.574-6.088c7.335-1.21,12.823,2.308,18.854,6.179
			c5.462,3.507,11.776,7.977,21.696,12.293c2.479,1.081,4.968,2.644,7.762,3.662c2.942,1.079,11.601,3.633,14.288,6.183
			c4.237,4,5.254,2.37,9.151,3.626c2.914,0.938,3.514,3.84,4.412,8.03c0.925-3.128-0.589-11.295-4.412-12.089
			c-3.251-0.67-3.763-0.32-5.981-1.655c-1.472-0.878-2.764-2.038-4.19-3.041c-3.438-2.412-6.335-2.778-10.07-4.069
			c-3.181-1.104-6.921-3.166-9.948-4.493c-6.944-3.046-13.18-6.867-20.591-11.451c-6.346-3.931-13.035-8.332-21.014-7.133
			c-3.505,0.53-6.393,1.627-8.905,2.947c-3.459,1.822-3.984,2.35-6.772,3.628c-1.8,0.827-3.623,0.499-3.58,0.455
			c-0.056-0.017-0.086-0.027-0.165-0.063c-5.047-3.622-10.713-7.37-13.831-8.332c-1.825-0.56-4.142-2.079-6.226-2.809
			c-3.753-1.311-8.87-0.727-12.315,0.981c-3.681,1.824-7.185,3.588-10.823,5.735c-4.159,2.446-20.868,9.145-24.885,10.879
			c-3.971,1.707-9.653,4.731-14.01,6.49c-10.253,4.144-11.171,3.769-20.895,4.777c-1.531,0.16-6.913,0.562-12.218,3.646
			c-3.024,1.753-7.586,5.789-7.522,9.392c0.005,0-0.004-0.006,0-0.006l0,0l40.055-0.038L51.135,49.433z"/>
		<g>
			<path d="M236.104,56.771c0,1.049-0.859,1.897-1.906,1.897c-1.039,0-1.893-0.854-1.893-1.893c0-1.041,0.85-1.902,1.887-1.902
				C235.245,54.873,236.104,55.718,236.104,56.771z M232.535,56.775c0,0.912,0.749,1.661,1.663,1.661
				c0.917,0,1.678-0.743,1.678-1.666c0-0.927-0.761-1.666-1.684-1.666C233.28,55.105,232.535,55.857,232.535,56.775z
				 M234.142,55.669c0.36,0,0.809,0.049,0.809,0.521c0,0.334-0.282,0.507-0.58,0.545v0.01c0.237,0.026,0.376,0.347,0.456,0.54
				c0.037,0.091,0.105,0.251,0.169,0.317c0.051,0.052,0.109,0.067,0.203,0.067v0.084h-0.141c-0.107,0-0.231,0.008-0.326-0.065
				s-0.18-0.292-0.219-0.396c-0.048-0.117-0.126-0.337-0.217-0.426c-0.088-0.09-0.225-0.073-0.336-0.073h-0.091v0.677
				c0,0.133,0.007,0.19,0.145,0.194l0.111,0.006v0.084h-0.798v-0.084h0.085c0.129,0,0.165-0.023,0.165-0.163v-1.589
				c0-0.14-0.069-0.148-0.165-0.152l-0.089-0.005v-0.091H234.142z M233.869,56.688h0.138c0.332,0,0.65-0.073,0.65-0.473
				c0-0.304-0.199-0.446-0.491-0.446h-0.152c-0.156,0-0.145,0.101-0.145,0.228V56.688z"/>
		</g>
		<g>
			<path d="M98.023,42.386v0.878c-0.965-0.025-1.797-0.039-2.498-0.039c-0.539,0-1.058,0.013-1.557,0.039
				c-0.167-0.339-0.427-0.719-0.782-1.137l-1.954-2.24c-1.477-1.737-2.262-2.653-2.355-2.747c-0.245-0.274-0.438-0.446-0.576-0.514
				c-0.093-0.048-0.172-0.072-0.239-0.072c-0.053,0-0.1,0.014-0.139,0.04c-0.035,0.02-0.056,0.042-0.065,0.071
				c-0.01,0.025-0.015,0.103-0.015,0.229v2.245l0.029,1.975c0.007,0.529,0.051,0.855,0.13,0.98c0.046,0.074,0.137,0.135,0.27,0.179
				c0.134,0.048,0.571,0.085,1.311,0.111v0.878c-1.094-0.044-2.247-0.067-3.46-0.067c-1.08,0-2.043,0.023-2.889,0.067v-0.878
				c0.693-0.034,1.14-0.079,1.34-0.14c0.074-0.027,0.135-0.07,0.185-0.128c0.05-0.062,0.089-0.153,0.12-0.277
				c0.029-0.123,0.055-0.388,0.074-0.795c0.061-0.984,0.09-1.696,0.09-2.135v-3.628l-0.07-3.097
				c-0.014-0.759-0.043-1.263-0.09-1.508c-0.034-0.147-0.071-0.243-0.116-0.29c-0.042-0.048-0.111-0.083-0.204-0.111
				c-0.148-0.04-0.591-0.079-1.33-0.119v-0.881c0.846,0.047,1.812,0.071,2.899,0.071c1.212,0,2.363-0.024,3.45-0.071v0.881
				c-0.774,0.021-1.244,0.073-1.41,0.161c-0.101,0.059-0.17,0.187-0.21,0.379c-0.08,0.433-0.119,1.256-0.119,2.47v2.758l0.159,0.071
				c0.627-0.499,1.487-1.313,2.581-2.44l1.419-1.451c0.459-0.473,0.785-0.813,0.97-1.02l0.88-1.029
				c0.007-0.141-0.003-0.4-0.029-0.781c0.673,0.014,1.126,0.022,1.36,0.022l2.35-0.022v0.881c-0.622,0.012-1.074,0.061-1.354,0.143
				c-0.281,0.082-0.629,0.282-1.043,0.603c-0.415,0.323-1.265,1.048-2.549,2.18l-1.889,1.89c0.32,0.399,0.797,0.969,1.432,1.706
				l2.193,2.567c1.013,1.182,1.7,1.966,2.06,2.352c0.36,0.387,0.623,0.614,0.79,0.683C97.341,42.351,97.624,42.386,98.023,42.386z"
				/>
			<path d="M99.225,43.265v-0.376c0.28-0.131,0.509-0.267,0.686-0.406c0.028-0.198,0.051-0.514,0.07-0.953
				c0.037-0.801,0.055-1.385,0.055-1.75v-3.15c0-0.12-0.006-0.575-0.02-1.364c-0.015-0.527-0.047-0.849-0.098-0.965
				c-0.024-0.048-0.059-0.082-0.106-0.106c-0.125-0.055-0.461-0.099-1.007-0.126v-0.539l1.624-0.012c0.322,0,0.63-0.002,0.925-0.002
				c0.639,0,1.351-0.006,2.134-0.019l1.421-0.037c0.168,0,0.509,0.011,1.022,0.028c0.046,0,0.123,0.014,0.231,0.042l0.049,0.092
				l-0.134,1.007c-0.005,0.071-0.028,0.407-0.069,1.009h-0.546c-0.01-0.55-0.03-0.889-0.063-1.015
				c-0.019-0.065-0.046-0.113-0.084-0.141c-0.06-0.042-0.247-0.078-0.559-0.113c-0.461-0.051-0.913-0.076-1.355-0.076
				c-0.414,0-0.838,0.017-1.272,0.049c-0.066,0.532-0.098,1.208-0.098,2.026v1.445c0.317,0.024,0.647,0.037,0.992,0.037
				c0.107,0,0.494-0.01,1.16-0.027c0.251-0.007,0.399-0.023,0.443-0.05c0.044-0.028,0.078-0.078,0.101-0.149
				c0.057-0.176,0.089-0.471,0.099-0.886h0.566l-0.035,1.539l0.035,1.534h-0.566c0.004-0.542-0.031-0.875-0.107-1.002
				c-0.056-0.092-0.157-0.152-0.303-0.176c-0.327-0.049-0.743-0.075-1.252-0.075c-0.457,0-0.834,0.015-1.132,0.047v2.937
				c0,0.326,0.007,0.609,0.021,0.844c0.378,0.034,0.826,0.048,1.342,0.048c0.503,0,0.967-0.015,1.393-0.048
				c0.427-0.034,0.689-0.078,0.788-0.141c0.032-0.017,0.062-0.061,0.09-0.125c0.083-0.224,0.172-0.65,0.266-1.274h0.574
				c-0.103,0.924-0.155,1.685-0.155,2.282l-0.09,0.09c-0.298,0.033-0.723,0.048-1.273,0.048l-1.127-0.023
				c-1.111-0.015-1.876-0.025-2.296-0.025C101.45,43.216,100.672,43.234,99.225,43.265z"/>
			<path d="M107.674,42.671c0.551-0.029,0.865-0.055,0.945-0.078c0.051-0.018,0.094-0.05,0.129-0.09
				c0.034-0.042,0.064-0.13,0.087-0.26c0.028-0.178,0.061-0.606,0.098-1.289c0.019-0.387,0.027-0.89,0.027-1.51v-2.248l-0.035-2.036
				c-0.004-0.342-0.018-0.563-0.041-0.665c-0.023-0.104-0.057-0.178-0.101-0.228c-0.044-0.049-0.118-0.086-0.218-0.114
				c-0.103-0.031-0.4-0.059-0.892-0.092v-0.589c0.592,0.034,1.029,0.05,1.309,0.05l1.015-0.025l0.644-0.024
				c0.961,1.255,2.126,2.702,3.493,4.339c0.984,1.18,1.802,2.105,2.451,2.772v-1.619c0-2.509-0.029-3.986-0.083-4.43
				c-0.02-0.172-0.063-0.284-0.127-0.335c-0.108-0.083-0.472-0.131-1.092-0.139v-0.589c0.569,0.034,1.092,0.05,1.568,0.05
				c0.462,0,1.058-0.016,1.785-0.05v0.589c-0.568,0.014-0.907,0.056-1.015,0.124c-0.037,0.024-0.063,0.06-0.076,0.106
				c-0.07,0.234-0.116,0.767-0.136,1.6c-0.021,0.832-0.033,1.446-0.033,1.844c0,3.102,0.031,4.985,0.092,5.647l-0.092,0.063
				c-0.392-0.065-0.79-0.125-1.197-0.183c-1.506-1.682-3.645-4.212-6.412-7.586v3.486c0,0.723,0.017,1.477,0.049,2.261
				c0.019,0.541,0.047,0.869,0.084,0.987c0.018,0.053,0.05,0.099,0.095,0.135c0.044,0.036,0.122,0.06,0.234,0.074
				c0.303,0.037,0.525,0.057,0.664,0.057c0.029,0,0.074-0.002,0.141-0.008v0.566c-0.887-0.013-1.392-0.021-1.513-0.021
				c-0.455,0-1.07,0.018-1.847,0.048V42.671z"/>
			<path d="M120.004,42.671c0.549-0.029,0.865-0.055,0.945-0.078c0.051-0.018,0.093-0.05,0.129-0.09
				c0.035-0.042,0.064-0.13,0.087-0.26c0.029-0.178,0.06-0.606,0.098-1.289c0.019-0.387,0.029-0.89,0.029-1.51v-2.248l-0.036-2.036
				c-0.004-0.342-0.018-0.563-0.042-0.665c-0.023-0.104-0.056-0.178-0.101-0.228c-0.044-0.049-0.118-0.086-0.22-0.114
				c-0.101-0.031-0.398-0.059-0.89-0.092v-0.589c0.593,0.034,1.028,0.05,1.309,0.05l1.014-0.025l0.644-0.024
				c0.962,1.255,2.125,2.702,3.493,4.339c0.985,1.18,1.801,2.105,2.45,2.772v-1.619c0-2.509-0.029-3.986-0.084-4.43
				c-0.018-0.172-0.061-0.284-0.127-0.335c-0.106-0.083-0.47-0.131-1.09-0.139v-0.589c0.569,0.034,1.09,0.05,1.567,0.05
				c0.462,0,1.057-0.016,1.785-0.05v0.589c-0.569,0.014-0.906,0.056-1.014,0.124c-0.039,0.024-0.063,0.06-0.078,0.106
				c-0.071,0.234-0.116,0.767-0.137,1.6c-0.022,0.832-0.031,1.446-0.031,1.844c0,3.102,0.03,4.985,0.091,5.647l-0.091,0.063
				c-0.393-0.065-0.791-0.125-1.198-0.183c-1.507-1.682-3.645-4.212-6.411-7.586v3.486c0,0.723,0.016,1.477,0.05,2.261
				c0.017,0.541,0.045,0.869,0.083,0.987c0.019,0.053,0.05,0.099,0.095,0.135c0.044,0.036,0.123,0.06,0.234,0.074
				c0.304,0.037,0.526,0.057,0.666,0.057c0.027,0,0.074-0.002,0.141-0.008v0.566c-0.888-0.013-1.393-0.021-1.515-0.021
				c-0.455,0-1.07,0.018-1.846,0.048V42.671z"/>
			<path d="M132.643,43.265v-0.376c0.279-0.131,0.507-0.267,0.686-0.406c0.027-0.198,0.052-0.514,0.07-0.953
				c0.037-0.801,0.056-1.385,0.056-1.75v-3.15c0-0.12-0.007-0.575-0.021-1.364c-0.015-0.527-0.047-0.849-0.097-0.965
				c-0.023-0.048-0.06-0.082-0.107-0.106c-0.124-0.055-0.461-0.099-1.008-0.126v-0.539l1.624-0.012c0.322,0,0.63-0.002,0.925-0.002
				c0.637,0,1.35-0.006,2.135-0.019l1.42-0.037c0.168,0,0.509,0.011,1.021,0.028c0.048,0,0.125,0.014,0.231,0.042l0.05,0.092
				l-0.135,1.007c-0.005,0.071-0.028,0.407-0.07,1.009h-0.545c-0.011-0.55-0.031-0.889-0.063-1.015
				c-0.019-0.065-0.046-0.113-0.083-0.141c-0.06-0.042-0.247-0.078-0.56-0.113c-0.46-0.051-0.913-0.076-1.354-0.076
				c-0.416,0-0.84,0.017-1.273,0.049c-0.066,0.532-0.1,1.208-0.1,2.026v1.445c0.317,0.024,0.648,0.037,0.994,0.037
				c0.106,0,0.492-0.01,1.158-0.027c0.253-0.007,0.399-0.023,0.445-0.05c0.043-0.028,0.076-0.078,0.101-0.149
				c0.055-0.176,0.089-0.471,0.097-0.886h0.566l-0.034,1.539l0.034,1.534h-0.566c0.005-0.542-0.03-0.875-0.106-1.002
				c-0.057-0.092-0.158-0.152-0.304-0.176c-0.326-0.049-0.743-0.075-1.25-0.075c-0.459,0-0.836,0.015-1.134,0.047v2.937
				c0,0.326,0.008,0.609,0.023,0.844c0.375,0.034,0.824,0.048,1.34,0.048c0.502,0,0.968-0.015,1.395-0.048
				c0.427-0.034,0.687-0.078,0.787-0.141c0.031-0.017,0.062-0.061,0.091-0.125c0.083-0.224,0.171-0.65,0.264-1.274h0.575
				c-0.104,0.924-0.154,1.685-0.154,2.282l-0.09,0.09c-0.299,0.033-0.724,0.048-1.275,0.048l-1.125-0.023
				c-1.112-0.015-1.877-0.025-2.297-0.025C134.867,43.216,134.088,43.234,132.643,43.265z"/>
			<path d="M147.757,36.029h-0.59c-0.008-0.541-0.032-0.925-0.07-1.147c-0.144-0.206-0.396-0.388-0.75-0.545
				c-0.356-0.161-0.756-0.24-1.197-0.24c-0.635,0-1.125,0.161-1.474,0.481c-0.345,0.32-0.519,0.695-0.519,1.126
				c0.004,0.309,0.055,0.557,0.154,0.749c0.096,0.191,0.237,0.344,0.42,0.456c0.18,0.113,0.447,0.216,0.804,0.309
				c0.269,0.055,0.645,0.126,1.128,0.208c0.481,0.086,0.795,0.146,0.939,0.177c0.378,0.099,0.682,0.214,0.915,0.354
				c0.234,0.138,0.419,0.295,0.556,0.476c0.138,0.179,0.25,0.405,0.339,0.681c0.089,0.271,0.132,0.577,0.132,0.917
				c0,0.6-0.122,1.122-0.371,1.578c-0.187,0.339-0.446,0.651-0.776,0.934c-0.331,0.281-0.674,0.492-1.023,0.632
				c-0.56,0.224-1.23,0.335-2.016,0.335c-0.574,0-1.085-0.052-1.532-0.16c-0.448-0.109-0.94-0.293-1.477-0.553
				c0.144-0.532,0.219-1.342,0.224-2.428h0.588c-0.011,0.336,0.016,0.754,0.077,1.256c0.178,0.29,0.479,0.545,0.91,0.766
				c0.428,0.219,0.897,0.329,1.407,0.329c0.443,0,0.838-0.079,1.186-0.234c0.347-0.156,0.6-0.372,0.756-0.649
				c0.155-0.276,0.234-0.588,0.234-0.938c0-0.295-0.054-0.547-0.164-0.76c-0.111-0.208-0.284-0.377-0.515-0.503
				c-0.233-0.127-0.643-0.257-1.232-0.393c-0.845-0.177-1.4-0.307-1.666-0.386c-0.401-0.12-0.728-0.297-0.97-0.523
				c-0.244-0.229-0.428-0.506-0.551-0.83c-0.121-0.325-0.182-0.675-0.182-1.048c0-0.522,0.112-1.005,0.332-1.444
				c0.218-0.442,0.507-0.786,0.866-1.026c0.36-0.242,0.766-0.416,1.218-0.522c0.453-0.104,0.917-0.158,1.394-0.158
				c0.494,0,0.974,0.044,1.437,0.133c0.465,0.087,0.867,0.217,1.208,0.382l0.056,0.168c-0.067,0.303-0.112,0.599-0.143,0.892
				C147.791,35.171,147.768,35.555,147.757,36.029z"/>
			<path d="M148.862,43.265v-0.58c0.376-0.027,0.602-0.051,0.674-0.074c0.072-0.021,0.134-0.052,0.186-0.099
				c0.051-0.042,0.104-0.111,0.157-0.209c0.054-0.095,0.214-0.451,0.48-1.067c0.12-0.288,0.353-0.862,0.701-1.715l1.826-4.507
				l0.615-1.588h0.996l3.128,7.307l0.435,0.958l0.278,0.644c0.046,0.086,0.092,0.145,0.133,0.183
				c0.042,0.038,0.09,0.066,0.144,0.085c0.053,0.018,0.19,0.034,0.409,0.049c0.069,0.009,0.173,0.021,0.308,0.034v0.58l-1.945-0.048
				l-2.456,0.048v-0.58c0.565-0.021,0.883-0.054,0.956-0.093c0.072-0.04,0.108-0.106,0.108-0.199c0-0.118-0.054-0.308-0.162-0.573
				l-0.601-1.536h-3.607l-0.308,0.838c-0.233,0.642-0.349,1.042-0.349,1.202c0,0.109,0.036,0.189,0.111,0.237
				c0.111,0.064,0.445,0.106,1.001,0.124v0.58l-1.616-0.048L148.862,43.265z M151.948,39.479c0.438,0.014,0.936,0.022,1.494,0.022
				c0.539,0,1.017-0.008,1.444-0.022l-1.498-3.616L151.948,39.479z"/>
			<path d="M165.928,33.355h0.643c0.174,0.476,0.343,0.927,0.511,1.352c0.729,1.867,1.167,2.978,1.315,3.333l0.84,2.072l0.813-3.14
				c0.314-1.242,0.493-2.002,0.539-2.283c0.014-0.073,0.021-0.144,0.021-0.209c0-0.098-0.021-0.173-0.067-0.232
				c-0.043-0.055-0.11-0.094-0.2-0.118c-0.042-0.009-0.335-0.036-0.881-0.077v-0.582c0.833,0.034,1.342,0.05,1.52,0.05l1.65-0.05
				v0.582c-0.069,0.004-0.121,0.009-0.153,0.013c-0.293,0.02-0.474,0.047-0.538,0.086c-0.065,0.038-0.129,0.104-0.19,0.201
				c-0.06,0.099-0.221,0.579-0.479,1.442c-0.259,0.864-0.639,2.249-1.142,4.153c-0.501,1.908-0.778,3.028-0.829,3.364h-1.071
				l-0.755-2.031l-1.909-4.861c-0.203,0.438-0.919,2.115-2.151,5.029l-0.75,1.863h-1.016l-1.627-7.447
				c-0.178-0.82-0.305-1.312-0.379-1.476c-0.051-0.117-0.122-0.196-0.211-0.237c-0.111-0.058-0.356-0.09-0.728-0.099v-0.582
				l1.954,0.05l2.291-0.05v0.582c-0.412,0.013-0.638,0.023-0.678,0.027c-0.132,0.021-0.226,0.056-0.281,0.11
				c-0.056,0.053-0.084,0.134-0.084,0.24c0,0.052,0.004,0.111,0.01,0.181c0.007,0.066,0.054,0.336,0.144,0.808
				c0.173,0.925,0.301,1.569,0.38,1.937l0.625,2.823c0.049-0.125,0.246-0.597,0.586-1.41l0.879-2.046l1.11-2.657
				C165.733,33.844,165.832,33.606,165.928,33.355z"/>
		</g>
		<path d="M67.534,45.711h-0.826c-0.014-0.762-0.046-1.299-0.099-1.613c-0.203-0.29-0.554-0.543-1.055-0.768
			c-0.5-0.222-1.062-0.335-1.683-0.335c-0.89,0-1.58,0.226-2.066,0.675c-0.487,0.451-0.731,0.977-0.731,1.582
			c0.007,0.432,0.078,0.784,0.215,1.052c0.138,0.27,0.333,0.483,0.59,0.64c0.256,0.159,0.63,0.304,1.129,0.434
			c0.38,0.08,0.908,0.178,1.586,0.297c0.677,0.116,1.118,0.199,1.32,0.244c0.53,0.139,0.959,0.303,1.286,0.497
			c0.328,0.194,0.587,0.417,0.781,0.671c0.193,0.25,0.352,0.569,0.477,0.952c0.124,0.382,0.187,0.813,0.187,1.292
			c0,0.839-0.174,1.577-0.522,2.211c-0.263,0.479-0.625,0.917-1.091,1.312c-0.465,0.398-0.943,0.694-1.435,0.893
			c-0.785,0.313-1.73,0.47-2.831,0.47c-0.806,0-1.523-0.074-2.153-0.225c-0.629-0.15-1.32-0.409-2.075-0.776
			c0.204-0.748,0.309-1.883,0.315-3.412h0.826c-0.014,0.473,0.023,1.062,0.107,1.766c0.25,0.407,0.676,0.765,1.279,1.075
			c0.603,0.308,1.261,0.463,1.976,0.463c0.624,0,1.178-0.11,1.667-0.332c0.488-0.219,0.842-0.523,1.062-0.911
			c0.218-0.386,0.329-0.826,0.329-1.318c0-0.414-0.078-0.77-0.231-1.063c-0.154-0.297-0.396-0.532-0.723-0.71
			c-0.326-0.178-0.904-0.361-1.73-0.551c-1.186-0.249-1.966-0.43-2.339-0.541c-0.563-0.17-1.018-0.417-1.362-0.738
			c-0.344-0.322-0.601-0.709-0.771-1.167c-0.171-0.455-0.256-0.945-0.256-1.468c0-0.735,0.154-1.411,0.462-2.033
			c0.308-0.618,0.713-1.099,1.219-1.439c0.504-0.341,1.074-0.586,1.71-0.732c0.636-0.149,1.288-0.222,1.957-0.222
			c0.695,0,1.367,0.061,2.021,0.185c0.651,0.124,1.216,0.305,1.694,0.539l0.079,0.236c-0.092,0.424-0.159,0.842-0.201,1.251
			C67.584,44.505,67.553,45.043,67.534,45.711z"/>
		<path d="M71.403,55.875v-0.562c0.55-0.021,0.877-0.057,0.981-0.111c0.104-0.056,0.173-0.147,0.21-0.275
			c0.05-0.198,0.075-0.793,0.075-1.782v-4.123c0-1.124-0.008-1.754-0.021-1.887h-0.983c-0.496,0-0.931,0.016-1.308,0.047
			c-0.151,0.014-0.238,0.034-0.261,0.056c-0.031,0.027-0.06,0.109-0.082,0.241c-0.06,0.322-0.094,0.683-0.104,1.083h-0.571
			c-0.019-0.941-0.03-1.472-0.034-1.593c-0.014-0.201-0.037-0.419-0.069-0.652l0.062-0.068c0.216,0.023,0.445,0.039,0.688,0.047
			c0.394,0.013,1.152,0.021,2.275,0.021h2.778c1.156,0,1.928-0.008,2.319-0.021c0.209-0.008,0.421-0.023,0.638-0.047l0.068,0.068
			c-0.042,0.279-0.066,0.526-0.075,0.734c-0.004,0.039-0.015,0.541-0.028,1.511h-0.57c-0.01-0.358-0.039-0.701-0.09-1.027
			c-0.027-0.166-0.058-0.263-0.089-0.296c-0.027-0.022-0.101-0.038-0.22-0.048c-0.378-0.037-0.83-0.056-1.357-0.056H74.65
			c-0.014,0.16-0.021,0.789-0.021,1.887v4.123c0,0.989,0.026,1.586,0.077,1.789c0.031,0.119,0.101,0.208,0.207,0.264
			c0.104,0.058,0.433,0.095,0.984,0.115v0.562c-0.89-0.041-1.638-0.062-2.248-0.062C72.999,55.813,72.25,55.834,71.403,55.875z"/>
		<path d="M76.974,55.875v-0.571c0.373-0.028,0.593-0.052,0.665-0.072c0.07-0.021,0.131-0.054,0.182-0.096
			c0.051-0.043,0.102-0.113,0.155-0.208c0.053-0.092,0.21-0.442,0.471-1.049c0.119-0.283,0.35-0.847,0.688-1.687l1.796-4.43
			l0.605-1.565h0.978l3.076,7.187l0.426,0.942l0.275,0.634c0.047,0.083,0.089,0.141,0.132,0.179c0.04,0.035,0.088,0.063,0.14,0.08
			c0.053,0.02,0.187,0.035,0.403,0.049c0.068,0.011,0.17,0.02,0.302,0.034v0.571l-1.912-0.045l-2.415,0.045v-0.571
			c0.556-0.021,0.869-0.053,0.939-0.092c0.071-0.039,0.107-0.102,0.107-0.197c0-0.112-0.053-0.3-0.159-0.562l-0.59-1.508H79.69
			l-0.302,0.824c-0.229,0.63-0.342,1.023-0.342,1.179c0,0.108,0.037,0.188,0.109,0.232c0.11,0.063,0.438,0.105,0.982,0.124v0.571
			l-1.586-0.045L76.974,55.875z M80.009,52.153c0.431,0.012,0.922,0.021,1.468,0.021c0.528,0,1.001-0.009,1.419-0.021l-1.473-3.556
			L80.009,52.153z"/>
		<path d="M88.012,55.875v-0.562c0.55-0.021,0.877-0.057,0.98-0.111c0.104-0.056,0.172-0.147,0.21-0.275
			c0.05-0.198,0.076-0.793,0.076-1.782v-4.123c0-1.124-0.007-1.754-0.022-1.887h-0.984c-0.494,0-0.931,0.016-1.307,0.047
			c-0.152,0.014-0.239,0.034-0.261,0.056c-0.033,0.027-0.061,0.109-0.083,0.241c-0.06,0.322-0.095,0.683-0.104,1.083h-0.571
			c-0.02-0.941-0.03-1.472-0.035-1.593c-0.014-0.201-0.036-0.419-0.068-0.652l0.062-0.068c0.214,0.023,0.444,0.039,0.688,0.047
			c0.394,0.013,1.153,0.021,2.275,0.021h2.778c1.155,0,1.928-0.008,2.317-0.021c0.21-0.008,0.423-0.023,0.639-0.047l0.069,0.068
			c-0.041,0.279-0.066,0.526-0.076,0.734c-0.004,0.039-0.014,0.541-0.026,1.511h-0.572c-0.009-0.358-0.039-0.701-0.089-1.027
			c-0.027-0.166-0.058-0.263-0.089-0.296c-0.028-0.022-0.102-0.038-0.22-0.048c-0.376-0.037-0.828-0.056-1.355-0.056H91.26
			c-0.014,0.16-0.021,0.789-0.021,1.887v4.123c0,0.989,0.025,1.586,0.076,1.789c0.032,0.119,0.102,0.208,0.207,0.264
			c0.106,0.058,0.434,0.095,0.984,0.115v0.562c-0.889-0.041-1.637-0.062-2.246-0.062C89.607,55.813,88.858,55.834,88.012,55.875z"/>
		<path d="M96.163,55.875v-0.372c0.275-0.127,0.5-0.259,0.675-0.398c0.027-0.193,0.05-0.505,0.068-0.936
			c0.037-0.791,0.056-1.364,0.056-1.721v-3.096c0-0.119-0.008-0.566-0.021-1.343c-0.014-0.519-0.046-0.835-0.096-0.949
			c-0.023-0.046-0.057-0.082-0.104-0.103c-0.124-0.056-0.454-0.095-0.991-0.124v-0.53l1.597-0.011
			c0.317-0.003,0.619-0.003,0.909-0.003c0.628,0,1.327-0.008,2.098-0.021l1.398-0.033c0.164,0,0.5,0.01,1.004,0.027
			c0.046,0,0.122,0.014,0.228,0.042l0.048,0.088l-0.131,0.991c-0.004,0.068-0.028,0.399-0.07,0.993h-0.537
			c-0.009-0.541-0.028-0.875-0.062-1c-0.019-0.064-0.045-0.11-0.083-0.137c-0.058-0.042-0.242-0.078-0.548-0.108
			c-0.454-0.053-0.898-0.08-1.333-0.08c-0.407,0-0.825,0.017-1.25,0.051c-0.064,0.522-0.097,1.186-0.097,1.99v1.423
			c0.312,0.022,0.637,0.034,0.976,0.034c0.105,0,0.485-0.008,1.14-0.028c0.247-0.005,0.392-0.02,0.436-0.047
			c0.043-0.028,0.077-0.074,0.099-0.145c0.056-0.174,0.087-0.466,0.096-0.875h0.558l-0.034,1.515l0.034,1.505h-0.558
			c0.004-0.531-0.029-0.859-0.103-0.983c-0.057-0.09-0.156-0.148-0.3-0.172c-0.319-0.049-0.73-0.076-1.229-0.076
			c-0.45,0-0.82,0.017-1.114,0.049v2.885c0,0.323,0.007,0.599,0.021,0.833c0.371,0.032,0.811,0.046,1.319,0.046
			c0.494,0,0.951-0.015,1.37-0.046c0.418-0.034,0.675-0.079,0.772-0.138c0.033-0.019,0.062-0.06,0.09-0.125
			c0.083-0.22,0.169-0.637,0.261-1.253h0.564c-0.101,0.91-0.15,1.655-0.15,2.245l-0.089,0.092c-0.294,0.028-0.712,0.045-1.253,0.045
			l-1.108-0.023c-1.092-0.016-1.844-0.021-2.257-0.021C98.352,55.83,97.585,55.844,96.163,55.875z"/>
		<path d="M122.832,55.29c0.541-0.027,0.85-0.051,0.928-0.074c0.051-0.019,0.092-0.048,0.128-0.09
			c0.035-0.042,0.062-0.126,0.084-0.254c0.028-0.175,0.06-0.598,0.098-1.267c0.019-0.38,0.027-0.876,0.027-1.488v-2.209
			l-0.035-2.003c-0.005-0.333-0.018-0.553-0.041-0.653c-0.023-0.102-0.057-0.177-0.1-0.224c-0.043-0.048-0.115-0.085-0.217-0.113
			c-0.099-0.027-0.391-0.056-0.874-0.091v-0.576c0.582,0.031,1.011,0.047,1.286,0.047l0.997-0.023l0.635-0.023
			c0.944,1.233,2.089,2.657,3.431,4.267c0.97,1.16,1.771,2.069,2.411,2.726V51.65c0-2.468-0.029-3.919-0.084-4.357
			c-0.018-0.17-0.058-0.279-0.124-0.33c-0.105-0.083-0.462-0.129-1.073-0.139v-0.576c0.559,0.031,1.073,0.047,1.542,0.047
			c0.454,0,1.039-0.016,1.754-0.047v0.576c-0.559,0.014-0.89,0.055-0.997,0.125c-0.037,0.023-0.062,0.058-0.075,0.101
			c-0.07,0.23-0.116,0.757-0.135,1.575c-0.021,0.819-0.031,1.423-0.031,1.812c0,3.051,0.029,4.903,0.09,5.554l-0.09,0.062
			c-0.385-0.064-0.776-0.122-1.176-0.179c-1.482-1.655-3.583-4.141-6.305-7.458v3.428c0,0.711,0.016,1.45,0.049,2.221
			c0.018,0.533,0.046,0.855,0.082,0.969c0.019,0.055,0.05,0.102,0.094,0.135c0.044,0.036,0.119,0.06,0.23,0.074
			c0.298,0.037,0.516,0.054,0.654,0.054c0.027,0,0.073-0.002,0.137-0.008v0.558c-0.874-0.014-1.367-0.018-1.487-0.018
			c-0.446,0-1.051,0.014-1.814,0.045V55.29z"/>
		<path d="M139.065,46.249v0.604c-0.467,0.014-0.743,0.032-0.831,0.051c-0.089,0.022-0.151,0.048-0.187,0.078
			c-0.038,0.029-0.062,0.067-0.077,0.112c-0.031,0.08-0.055,0.227-0.069,0.447c-0.009,0.121-0.015,0.345-0.02,0.676
			c-0.02,1.128-0.028,1.736-0.028,1.823v2.774l0.021,1.259c0,0.471,0.022,0.781,0.069,0.923c0.018,0.063,0.05,0.114,0.092,0.146
			c0.046,0.037,0.114,0.064,0.208,0.083c0.095,0.022,0.369,0.035,0.822,0.045v0.605c-0.749-0.031-1.546-0.045-2.396-0.045
			c-0.739,0-1.397,0.014-1.977,0.045V55.27c0.478-0.018,0.752-0.036,0.826-0.049c0.098-0.017,0.162-0.043,0.195-0.075
			c0.037-0.032,0.058-0.069,0.067-0.111c0.013-0.052,0.033-0.27,0.054-0.645c0.037-0.551,0.055-1.06,0.055-1.528v-2.876
			c0-0.912-0.003-1.5-0.012-1.763c-0.023-0.582-0.052-0.947-0.083-1.092c-0.013-0.063-0.035-0.108-0.066-0.14
			c-0.03-0.031-0.084-0.059-0.164-0.079c-0.083-0.021-0.372-0.039-0.872-0.059v-0.604c0.58,0.031,1.241,0.047,1.989,0.047
			C137.524,46.296,138.316,46.28,139.065,46.249z"/>
		<path d="M144.625,55.924c-0.393-0.961-0.766-1.877-1.124-2.745l-0.977-2.33c-0.766-1.829-1.237-2.919-1.415-3.271
			c-0.175-0.351-0.31-0.552-0.4-0.602c-0.139-0.073-0.422-0.114-0.854-0.124v-0.604c1.103,0.031,1.77,0.047,2.009,0.047l2.47-0.047
			v0.604c-0.385,0.007-0.664,0.027-0.838,0.069c-0.103,0.022-0.173,0.057-0.21,0.101c-0.039,0.044-0.06,0.099-0.06,0.168
			c0,0.136,0.152,0.573,0.456,1.307c0.174,0.421,0.265,0.648,0.276,0.684c0.011,0.033,0.027,0.077,0.044,0.126l1.74,4.244
			l1.529-3.784c0.037-0.087,0.199-0.519,0.49-1.297c0.206-0.551,0.333-0.921,0.378-1.109c0.008-0.055,0.014-0.109,0.014-0.166
			c0-0.077-0.013-0.136-0.038-0.174c-0.025-0.04-0.059-0.069-0.1-0.086c-0.032-0.014-0.116-0.026-0.248-0.035
			c-0.298-0.028-0.551-0.042-0.757-0.049v-0.604l1.748,0.047l1.487-0.047v0.604c-0.447,0.042-0.705,0.091-0.778,0.143
			c-0.124,0.098-0.383,0.619-0.778,1.563l-0.488,1.142l-0.93,2.215c-0.788,1.889-1.323,3.225-1.602,4.008H144.625z"/>
		<path d="M151.935,55.875v-0.372c0.274-0.127,0.5-0.259,0.673-0.398c0.028-0.193,0.05-0.505,0.069-0.936
			c0.037-0.791,0.056-1.364,0.056-1.721v-3.096c0-0.119-0.009-0.566-0.022-1.343c-0.013-0.519-0.046-0.835-0.096-0.949
			c-0.023-0.046-0.058-0.082-0.104-0.103c-0.125-0.056-0.454-0.095-0.991-0.124v-0.53l1.597-0.011
			c0.316-0.003,0.618-0.003,0.907-0.003c0.629,0,1.327-0.008,2.099-0.021l1.398-0.033c0.165,0,0.5,0.01,1.004,0.027
			c0.046,0,0.121,0.014,0.226,0.042l0.05,0.088l-0.13,0.991c-0.005,0.068-0.028,0.399-0.07,0.993h-0.537
			c-0.01-0.541-0.03-0.875-0.062-1c-0.017-0.064-0.045-0.11-0.083-0.137c-0.059-0.042-0.241-0.078-0.549-0.108
			c-0.453-0.053-0.897-0.08-1.333-0.08c-0.407,0-0.823,0.017-1.248,0.051c-0.066,0.522-0.097,1.186-0.097,1.99v1.423
			c0.312,0.022,0.637,0.034,0.974,0.034c0.107,0,0.486-0.008,1.141-0.028c0.246-0.005,0.393-0.02,0.436-0.047
			c0.042-0.028,0.075-0.074,0.1-0.145c0.055-0.174,0.086-0.466,0.096-0.875h0.558l-0.035,1.515l0.035,1.505h-0.558
			c0.004-0.531-0.032-0.859-0.104-0.983c-0.056-0.09-0.156-0.148-0.299-0.172c-0.319-0.049-0.73-0.076-1.23-0.076
			c-0.45,0-0.82,0.017-1.112,0.049v2.885c0,0.323,0.007,0.599,0.02,0.833c0.371,0.032,0.811,0.046,1.319,0.046
			c0.495,0,0.951-0.015,1.369-0.046c0.419-0.034,0.678-0.079,0.772-0.138c0.032-0.019,0.063-0.06,0.091-0.125
			c0.082-0.22,0.17-0.637,0.261-1.253h0.563c-0.101,0.91-0.151,1.655-0.151,2.245l-0.09,0.092c-0.292,0.028-0.71,0.045-1.252,0.045
			l-1.108-0.023c-1.091-0.016-1.843-0.021-2.256-0.021C154.122,55.83,153.356,55.844,151.935,55.875z"/>
		<path d="M159.646,46.811v-0.562c0.105,0,0.472,0.009,1.101,0.031c0.308,0.012,0.743,0.016,1.308,0.016
			c0.48,0,0.895-0.01,1.239-0.03c0.569-0.026,1.039-0.04,1.411-0.04c0.72,0,1.259,0.054,1.617,0.157
			c0.358,0.102,0.662,0.317,0.916,0.644c0.251,0.326,0.377,0.725,0.377,1.192c0,0.555-0.17,1.061-0.516,1.517
			c-0.343,0.454-0.873,0.816-1.588,1.083c0.115,0.203,0.245,0.412,0.392,0.627c0.146,0.215,0.233,0.345,0.258,0.391
			c0.024,0.045,0.052,0.086,0.079,0.127l1.067,1.591c0.284,0.425,0.436,0.652,0.46,0.684c0.344,0.455,0.556,0.723,0.632,0.807
			c0.08,0.08,0.155,0.138,0.228,0.17c0.073,0.031,0.218,0.051,0.433,0.054v0.605c-0.706-0.018-1.218-0.027-1.535-0.027
			c-0.367,0-0.73,0.01-1.093,0.027c-0.022-0.102-0.078-0.23-0.165-0.39l-1.473-2.43c-0.422-0.697-0.779-1.246-1.073-1.646
			c-0.148-0.201-0.288-0.352-0.427-0.451l0.075-0.228c0.551,0.018,0.965-0.04,1.246-0.169c0.281-0.132,0.516-0.366,0.709-0.704
			c0.191-0.338,0.289-0.716,0.289-1.132c0-0.423-0.101-0.775-0.302-1.055c-0.202-0.282-0.453-0.478-0.75-0.588
			c-0.191-0.069-0.537-0.103-1.032-0.103c-0.22,0-0.439,0.019-0.654,0.056c-0.015,0.164-0.028,0.535-0.043,1.115
			c-0.027,1.301-0.041,2.168-0.041,2.603c0,0.69,0.009,1.419,0.023,2.192c0.016,0.945,0.03,1.481,0.041,1.609
			c0.012,0.261,0.037,0.426,0.075,0.505c0.02,0.037,0.048,0.069,0.089,0.1c0.041,0.029,0.107,0.056,0.199,0.073
			c0.094,0.018,0.358,0.031,0.8,0.041v0.605c-0.786-0.031-1.579-0.045-2.382-0.045c-0.714,0-1.376,0.014-1.988,0.045V55.27
			c0.523-0.018,0.833-0.042,0.929-0.077c0.055-0.013,0.094-0.036,0.121-0.067c0.025-0.033,0.045-0.095,0.059-0.193
			c0.031-0.179,0.054-0.451,0.067-0.812l0.055-2.012v-2.556l-0.034-1.452c-0.01-0.575-0.037-0.919-0.083-1.034
			c-0.022-0.05-0.058-0.09-0.102-0.117C160.55,46.895,160.211,46.849,159.646,46.811z"/>
		<path d="M176.355,48.76h-0.577c-0.009-0.531-0.032-0.91-0.069-1.129c-0.143-0.201-0.388-0.38-0.739-0.537
			c-0.35-0.155-0.744-0.231-1.179-0.231c-0.623,0-1.105,0.155-1.446,0.471c-0.341,0.314-0.51,0.685-0.51,1.106
			c0.003,0.304,0.055,0.549,0.149,0.738c0.098,0.188,0.234,0.339,0.415,0.446c0.178,0.112,0.442,0.212,0.79,0.306
			c0.266,0.054,0.635,0.124,1.108,0.205c0.475,0.084,0.782,0.141,0.925,0.175c0.372,0.095,0.671,0.211,0.899,0.346
			c0.229,0.136,0.413,0.292,0.546,0.468c0.136,0.178,0.248,0.4,0.334,0.668c0.088,0.269,0.132,0.572,0.132,0.906
			c0,0.585-0.124,1.104-0.365,1.548c-0.184,0.336-0.438,0.641-0.765,0.919c-0.325,0.277-0.659,0.485-1.003,0.622
			c-0.551,0.22-1.212,0.33-1.982,0.33c-0.565,0-1.067-0.053-1.507-0.156c-0.441-0.105-0.926-0.287-1.453-0.544
			c0.142-0.524,0.217-1.318,0.22-2.387h0.579c-0.009,0.33,0.017,0.743,0.075,1.235c0.174,0.285,0.474,0.536,0.895,0.753
			c0.423,0.215,0.884,0.324,1.384,0.324c0.437,0,0.825-0.076,1.167-0.229c0.342-0.156,0.589-0.369,0.742-0.64
			c0.155-0.271,0.231-0.578,0.231-0.923c0-0.29-0.054-0.537-0.162-0.745c-0.107-0.205-0.276-0.371-0.505-0.495
			c-0.231-0.126-0.634-0.254-1.21-0.386c-0.833-0.175-1.378-0.302-1.638-0.379c-0.396-0.12-0.712-0.29-0.953-0.516
			c-0.242-0.225-0.421-0.499-0.542-0.816c-0.118-0.319-0.178-0.662-0.178-1.031c0-0.513,0.107-0.987,0.322-1.419
			c0.218-0.435,0.5-0.771,0.854-1.009c0.354-0.24,0.752-0.409,1.198-0.512c0.444-0.104,0.901-0.155,1.369-0.155
			c0.486,0,0.957,0.043,1.415,0.13c0.455,0.086,0.85,0.212,1.187,0.377l0.054,0.165c-0.063,0.296-0.11,0.59-0.141,0.874
			C176.391,47.916,176.369,48.293,176.355,48.76z"/>
		<path d="M182.518,46.249v0.604c-0.466,0.014-0.743,0.032-0.83,0.051c-0.088,0.022-0.151,0.048-0.187,0.078
			c-0.037,0.029-0.063,0.067-0.077,0.112c-0.033,0.08-0.055,0.227-0.068,0.447c-0.009,0.121-0.017,0.345-0.021,0.676
			c-0.02,1.128-0.028,1.736-0.028,1.823v2.774l0.021,1.259c0,0.471,0.022,0.781,0.07,0.923c0.016,0.063,0.048,0.114,0.091,0.146
			c0.044,0.037,0.114,0.064,0.208,0.083c0.095,0.022,0.368,0.035,0.82,0.045v0.605c-0.748-0.031-1.547-0.045-2.396-0.045
			c-0.737,0-1.396,0.014-1.974,0.045V55.27c0.476-0.018,0.751-0.036,0.824-0.049c0.097-0.017,0.163-0.043,0.195-0.075
			c0.036-0.032,0.059-0.069,0.066-0.111c0.014-0.052,0.032-0.27,0.054-0.645c0.039-0.551,0.058-1.06,0.058-1.528v-2.876
			c0-0.912-0.006-1.5-0.016-1.763c-0.022-0.582-0.05-0.947-0.082-1.092c-0.014-0.063-0.035-0.108-0.066-0.14
			c-0.028-0.031-0.083-0.059-0.164-0.079c-0.08-0.021-0.371-0.039-0.869-0.059v-0.604c0.577,0.031,1.239,0.047,1.988,0.047
			C180.975,46.296,181.77,46.28,182.518,46.249z"/>
		<path d="M185.451,55.875v-0.562c0.547-0.021,0.876-0.057,0.979-0.111c0.102-0.056,0.174-0.147,0.21-0.275
			c0.051-0.198,0.075-0.793,0.075-1.782v-4.123c0-1.124-0.007-1.754-0.02-1.887h-0.985c-0.493,0-0.931,0.016-1.307,0.047
			c-0.149,0.014-0.237,0.034-0.262,0.056c-0.031,0.027-0.059,0.109-0.081,0.241c-0.062,0.322-0.095,0.683-0.104,1.083h-0.57
			c-0.019-0.941-0.03-1.472-0.033-1.593c-0.017-0.201-0.039-0.419-0.07-0.652l0.062-0.068c0.214,0.023,0.445,0.039,0.688,0.047
			c0.396,0.013,1.153,0.021,2.276,0.021h2.777c1.156,0,1.929-0.008,2.317-0.021c0.213-0.008,0.426-0.023,0.64-0.047l0.07,0.068
			c-0.042,0.279-0.067,0.526-0.077,0.734c-0.003,0.039-0.013,0.541-0.027,1.511h-0.569c-0.011-0.358-0.04-0.701-0.092-1.027
			c-0.026-0.166-0.055-0.263-0.088-0.296c-0.027-0.022-0.102-0.038-0.221-0.048c-0.377-0.037-0.83-0.056-1.356-0.056h-0.986
			c-0.013,0.16-0.019,0.789-0.019,1.887v4.123c0,0.989,0.024,1.586,0.075,1.789c0.032,0.119,0.1,0.208,0.206,0.264
			c0.106,0.058,0.436,0.095,0.982,0.115v0.562c-0.888-0.041-1.636-0.062-2.243-0.062C187.046,55.813,186.297,55.834,185.451,55.875z
			"/>
		<path d="M198.311,50.81l0.865-1.402c0.147-0.252,0.582-1.021,1.305-2.302c0.252-0.438,0.41-0.727,0.475-0.857h1.09v0.309
			c-0.558,0.747-1.156,1.628-1.801,2.635c-0.643,1.01-1.041,1.658-1.192,1.949c-0.102,0.196-0.169,0.367-0.202,0.517
			c-0.021,0.104-0.031,0.276-0.031,0.516v1.162c0,0.583,0.014,1.006,0.043,1.274c0.031,0.265,0.066,0.425,0.108,0.48
			c0.04,0.056,0.107,0.099,0.204,0.126c0.097,0.028,0.4,0.044,0.91,0.054v0.605c-0.875-0.031-1.666-0.045-2.371-0.045
			c-0.688,0-1.385,0.014-2.089,0.045V55.27c0.521-0.018,0.83-0.04,0.917-0.062c0.091-0.022,0.153-0.059,0.187-0.103
			c0.035-0.046,0.062-0.184,0.074-0.414c0.021-0.521,0.034-0.966,0.034-1.333V52.05c0-0.105-0.088-0.322-0.262-0.655
			c-0.432-0.789-0.895-1.564-1.383-2.332c-0.4-0.625-0.771-1.125-1.115-1.501c-0.229-0.246-0.394-0.396-0.488-0.446
			c-0.061-0.028-0.263-0.041-0.606-0.041v-0.517l1.46-0.29c0.246-0.055,0.5-0.116,0.763-0.185c0.277,0.155,0.483,0.293,0.61,0.417
			c0.129,0.121,0.305,0.35,0.528,0.683c0.336,0.497,0.67,1.067,0.998,1.715C197.878,49.935,198.201,50.573,198.311,50.81z"/>
		<g>
			<path d="M107.651,46.825V46.02l3.091,0.068l1.285-0.021l1.284-0.035l0.352-0.012v0.806c-0.685,0-1.121,0.062-1.304,0.186
				c-0.095,0.057-0.158,0.171-0.189,0.34c-0.089,0.401-0.133,1.285-0.133,2.648v2.252l0.01,1.135c0,1.185,0.013,1.915,0.038,2.194
				c0.058,0.609,0.206,1.097,0.446,1.47c0.242,0.373,0.611,0.674,1.109,0.902c0.498,0.23,1.13,0.345,1.899,0.345
				c0.881,0,1.583-0.152,2.106-0.46c0.524-0.307,0.896-0.707,1.118-1.199c0.222-0.491,0.333-1.426,0.333-2.805v-1.979
				c0-1.708-0.003-2.75-0.009-3.125c-0.02-0.815-0.064-1.308-0.134-1.476c-0.044-0.104-0.116-0.181-0.219-0.233
				c-0.209-0.11-0.666-0.174-1.37-0.195V46.02c1.148,0.047,1.831,0.068,2.045,0.068c0.057,0,0.143-0.003,0.257-0.009l2.112-0.06
				v0.806c-0.59,0-0.96,0.048-1.113,0.146c-0.075,0.052-0.138,0.15-0.185,0.295s-0.094,0.802-0.138,1.966
				c-0.044,1.165-0.067,2.084-0.067,2.757v2.279c0,0.583-0.042,1.184-0.124,1.805c-0.083,0.621-0.249,1.153-0.499,1.594
				c-0.251,0.438-0.605,0.838-1.061,1.192c-0.457,0.356-0.999,0.625-1.627,0.806c-0.627,0.18-1.354,0.271-2.179,0.271
				c-0.963,0-1.864-0.133-2.701-0.397c-0.609-0.195-1.107-0.454-1.493-0.782c-0.388-0.326-0.682-0.691-0.886-1.095
				c-0.204-0.406-0.327-0.796-0.371-1.171c-0.032-0.231-0.048-0.861-0.048-1.883l0.01-1.864v-2.463c0-0.905-0.016-1.721-0.048-2.447
				c-0.019-0.285-0.058-0.491-0.115-0.621c-0.031-0.072-0.112-0.155-0.238-0.253L107.651,46.825z"/>
		</g>
	</g>
</g>
</svg>
